<svg width="20" height="21" viewBox="0 0 20 21" fill="none" xmlns="http://www.w3.org/2000/svg">
<path d="M7.875 3.375V3.75H11.625V3.375C11.625 2.87772 11.4275 2.40081 11.0758 2.04917C10.7242 1.69754 10.2473 1.5 9.75 1.5C9.25272 1.5 8.77581 1.69754 8.42418 2.04917C8.07254 2.40081 7.875 2.87772 7.875 3.375ZM6.375 3.75V3.375C6.375 2.47989 6.73058 1.62145 7.36351 0.988515C7.99645 0.355579 8.85489 0 9.75 0C10.6451 0 11.5035 0.355579 12.1365 0.988515C12.7694 1.62145 13.125 2.47989 13.125 3.375V3.75H18.75C18.9489 3.75 19.1397 3.82902 19.2803 3.96967C19.421 4.11032 19.5 4.30109 19.5 4.5C19.5 4.69891 19.421 4.88968 19.2803 5.03033C19.1397 5.17098 18.9489 5.25 18.75 5.25H17.619L16.2 17.676C16.0954 18.5911 15.6576 19.4358 14.9701 20.0488C14.2826 20.6618 13.3936 21.0004 12.4725 21H7.0275C6.1064 21.0004 5.21735 20.6618 4.52989 20.0488C3.84243 19.4358 3.40464 18.5911 3.3 17.676L1.881 5.25H0.75C0.551088 5.25 0.360322 5.17098 0.21967 5.03033C0.0790176 4.88968 0 4.69891 0 4.5C0 4.30109 0.0790176 4.11032 0.21967 3.96967C0.360322 3.82902 0.551088 3.75 0.75 3.75H6.375ZM4.791 17.505C4.85362 18.0539 5.11602 18.5606 5.52819 18.9286C5.94037 19.2965 6.4735 19.4999 7.026 19.5H12.4733C13.0257 19.4999 13.5589 19.2965 13.9711 18.9286C14.3832 18.5606 14.6456 18.0539 14.7083 17.505L16.11 5.25H3.39075L4.791 17.505ZM7.5 7.875C7.69891 7.875 7.88968 7.95402 8.03033 8.09467C8.17098 8.23532 8.25 8.42609 8.25 8.625V16.125C8.25 16.3239 8.17098 16.5147 8.03033 16.6553C7.88968 16.796 7.69891 16.875 7.5 16.875C7.30109 16.875 7.11032 16.796 6.96967 16.6553C6.82902 16.5147 6.75 16.3239 6.75 16.125V8.625C6.75 8.42609 6.82902 8.23532 6.96967 8.09467C7.11032 7.95402 7.30109 7.875 7.5 7.875ZM12.75 8.625C12.75 8.42609 12.671 8.23532 12.5303 8.09467C12.3897 7.95402 12.1989 7.875 12 7.875C11.8011 7.875 11.6103 7.95402 11.4697 8.09467C11.329 8.23532 11.25 8.42609 11.25 8.625V16.125C11.25 16.3239 11.329 16.5147 11.4697 16.6553C11.6103 16.796 11.8011 16.875 12 16.875C12.1989 16.875 12.3897 16.796 12.5303 16.6553C12.671 16.5147 12.75 16.3239 12.75 16.125V8.625Z" fill="black"/>
</svg>
