<svg width="26" height="24" viewBox="0 0 26 24" fill="none" xmlns="http://www.w3.org/2000/svg">
<path d="M15.1641 19.7838C19.4698 19.7838 21.6233 19.7838 22.9603 18.4456C24.2985 17.1086 24.2985 14.9552 24.2985 10.6495C24.2985 6.3438 24.2985 4.19038 22.9603 2.85335C21.6233 1.51517 19.4698 1.51517 15.1641 1.51517H10.597C6.29128 1.51517 4.13786 1.51517 2.80083 2.85335C1.46265 4.19038 1.46265 6.3438 1.46265 10.6495C1.46265 14.9552 1.46265 17.1086 2.80083 18.4456C3.54642 19.1924 4.54548 19.5224 6.02981 19.6674" stroke="white" stroke-width="1.52239" stroke-linecap="round" stroke-linejoin="round"/>
<path d="M16.5423 5.84599C16.436 5.73954 16.3097 5.65515 16.1706 5.59768C16.0316 5.54021 15.8826 5.51079 15.7321 5.51111C15.5816 5.51143 15.4327 5.54148 15.2939 5.59954C15.1551 5.6576 15.0292 5.74252 14.9233 5.84941L9.72814 11.0982C9.41362 11.4159 9.19924 11.8188 9.11157 12.2571L8.90605 13.2802C8.8691 13.4646 8.87826 13.6552 8.93272 13.8352C8.98717 14.0152 9.08524 14.1789 9.21821 14.3119C9.35118 14.4449 9.51493 14.543 9.69492 14.5974C9.87491 14.6519 10.0656 14.661 10.2499 14.6241L11.273 14.4186C11.7113 14.3309 12.1143 14.1165 12.4319 13.802L17.6807 8.60684C17.7876 8.50096 17.8725 8.375 17.9306 8.2362C17.9886 8.09739 18.0187 7.94848 18.019 7.79802C18.0193 7.64756 17.9899 7.49853 17.9324 7.35948C17.875 7.22043 17.7906 7.09411 17.6841 6.98778L16.5423 5.84599V5.84599Z" stroke="white" stroke-width="1.52239" stroke-linecap="round" stroke-linejoin="round"/>
<path d="M13.4515 8.93683L14.5933 10.0786" stroke="white" stroke-width="1.52239"/>
<path d="M15.1642 19.7838C13.753 19.7838 12.1979 20.3547 10.7786 21.0912C8.49731 22.2752 7.35666 22.8678 6.7949 22.4899C6.23314 22.1131 6.33933 20.9427 6.55284 18.6032L6.6008 18.0711" stroke="white" stroke-width="1.52239" stroke-linecap="round"/>
</svg>
