<svg width="26" height="26" viewBox="0 0 26 26" fill="none" xmlns="http://www.w3.org/2000/svg">
<path d="M7.2367 2.06018L5.37211 0.195587C2.24273 2.58174 0.182547 6.25877 0 10.4313H2.60782C2.70019 8.77768 3.16437 7.16621 3.9658 5.71685C4.76724 4.26749 5.88529 3.01758 7.2367 2.06018ZM23.3922 10.4313H26C25.8044 6.25877 23.7442 2.58174 20.6279 0.195587L18.7763 2.06018C20.1219 3.02229 21.235 4.27358 22.0338 5.72216C22.8325 7.17075 23.2967 8.77984 23.3922 10.4313ZM20.8235 11.0832C20.8235 7.08023 18.685 3.72918 14.9559 2.84252V1.95587C14.9559 0.87362 14.0822 0 13 0C11.9177 0 11.0441 0.87362 11.0441 1.95587V2.84252C7.3019 3.72918 5.17652 7.06719 5.17652 11.0832V17.6028L2.5687 20.2106V21.5145H23.4313V20.2106L20.8235 17.6028V11.0832ZM13 25.4263C13.1825 25.4263 13.352 25.4132 13.5216 25.3741C14.3691 25.1915 15.0602 24.6178 15.3992 23.8355C15.5296 23.5225 15.5948 23.1835 15.5948 22.8184H10.3791C10.3922 24.2527 11.5526 25.4263 13 25.4263Z" fill="black"/>
</svg>
