<svg width="51" height="51" viewBox="0 0 51 51" fill="none" xmlns="http://www.w3.org/2000/svg">
<path d="M30.6 35.7C30.6 34.3474 31.1374 33.0502 32.0938 32.0937C33.0502 31.1373 34.3474 30.6 35.7 30.6H43.35C44.7027 30.6 45.9999 31.1373 46.9563 32.0937C47.9127 33.0502 48.45 34.3474 48.45 35.7V43.35C48.45 44.7026 47.9127 45.9998 46.9563 46.9562C45.9999 47.9127 44.7027 48.45 43.35 48.45H35.7C34.3474 48.45 33.0502 47.9127 32.0938 46.9562C31.1374 45.9998 30.6 44.7026 30.6 43.35V35.7ZM35.7 33.15C35.0237 33.15 34.3751 33.4186 33.8969 33.8969C33.4187 34.3751 33.15 35.0237 33.15 35.7V43.35C33.15 44.0263 33.4187 44.6749 33.8969 45.1531C34.3751 45.6313 35.0237 45.9 35.7 45.9H43.35C44.0264 45.9 44.675 45.6313 45.1532 45.1531C45.6314 44.6749 45.9 44.0263 45.9 43.35V35.7C45.9 35.0237 45.6314 34.3751 45.1532 33.8969C44.675 33.4186 44.0264 33.15 43.35 33.15H35.7ZM12.75 22.95V31.875C12.75 33.5657 13.4217 35.1872 14.6172 36.3828C15.8128 37.5783 17.4343 38.25 19.125 38.25H28.05V35.7H24.7529L28.9859 31.467C29.5851 30.4419 30.4419 29.5851 31.467 28.9858L35.7 24.7528V28.05H38.25V19.125C38.25 17.4342 37.5784 15.8127 36.3829 14.6172C35.1873 13.4216 33.5658 12.75 31.875 12.75H22.95V15.3H26.2472L22.0142 19.533C21.4149 20.5581 20.5607 21.4149 19.533 22.0141L15.3 26.2471V22.95H12.75ZM29.8529 15.3H31.875C32.4666 15.3 33.0225 15.4326 33.5249 15.6723L15.6749 33.5223C15.4282 33.0082 15.3001 32.4452 15.3 31.875V29.8528L29.8529 15.3ZM19.125 35.7C18.5334 35.7 17.9775 35.5648 17.4752 35.3277L35.3252 17.4777C35.5674 17.9749 35.7 18.5334 35.7 19.125V21.1497L21.1472 35.7H19.125ZM2.55005 7.64999C2.55005 6.29738 3.08737 5.00018 4.0438 4.04374C5.00024 3.08731 6.29744 2.54999 7.65005 2.54999H15.3C16.6527 2.54999 17.9499 3.08731 18.9063 4.04374C19.8627 5.00018 20.4 6.29738 20.4 7.64999V15.3C20.4 16.6526 19.8627 17.9498 18.9063 18.9062C17.9499 19.8627 16.6527 20.4 15.3 20.4H7.65005C6.29744 20.4 5.00024 19.8627 4.0438 18.9062C3.08737 17.9498 2.55005 16.6526 2.55005 15.3V7.64999ZM7.65005 5.09999C6.97375 5.09999 6.32514 5.36865 5.84693 5.84687C5.36871 6.32508 5.10005 6.97369 5.10005 7.64999V15.3C5.10005 15.9763 5.36871 16.6249 5.84693 17.1031C6.32514 17.5813 6.97375 17.85 7.65005 17.85H15.3C15.9764 17.85 16.625 17.5813 17.1032 17.1031C17.5814 16.6249 17.85 15.9763 17.85 15.3V7.64999C17.85 6.97369 17.5814 6.32508 17.1032 5.84687C16.625 5.36865 15.9764 5.09999 15.3 5.09999H7.65005Z" fill="black"/>
</svg>
