<svg width="51" height="51" viewBox="0 0 51 51" fill="none" xmlns="http://www.w3.org/2000/svg">
<path d="M44.455 5.0575C42.0693 4.5232 39.6322 4.25242 37.1875 4.25C34.8786 4.1034 32.5636 4.41468 30.3755 5.16593C28.1873 5.91719 26.1693 7.09359 24.4375 8.6275C22.1566 10.9083 19.897 13.1821 17.6587 15.4487C15.0875 15.1725 8.98871 15.0237 4.90871 19.1462C4.51292 19.5444 4.29077 20.083 4.29077 20.6444C4.29077 21.2058 4.51292 21.7444 4.90871 22.1425L28.9212 46.1975C29.3194 46.5933 29.8579 46.8154 30.4193 46.8154C30.9807 46.8154 31.5193 46.5933 31.9175 46.1975C36.0612 41.9475 35.9337 35.955 35.6787 33.4475L42.5 26.6475C49.2787 19.8687 46.1975 7.14 46.07 6.60875C45.9719 6.22547 45.7687 5.87719 45.4834 5.60313C45.198 5.32906 44.8419 5.14009 44.455 5.0575ZM39.44 23.6512L31.875 31.1737C31.63 31.4211 31.4495 31.7249 31.3495 32.0584C31.2494 32.3919 31.2328 32.7449 31.3012 33.0862C31.7603 35.9291 31.3607 38.8442 30.1537 41.4587L9.60496 20.8675C12.2609 19.6451 15.2299 19.274 18.105 19.805C18.4451 19.8493 18.7909 19.8106 19.1129 19.6922C19.4348 19.5737 19.7233 19.3791 19.9537 19.125C19.9537 19.125 22.9287 16.0437 27.4125 11.56C30.1695 9.34599 33.6601 8.25327 37.1875 8.5C38.8466 8.50822 40.5024 8.65035 42.1387 8.925C42.6487 11.9637 43.4562 19.635 39.44 23.6512Z" fill="black"/>
<path d="M33.4263 21.8875C35.7735 21.8875 37.6763 19.9847 37.6763 17.6375C37.6763 15.2903 35.7735 13.3875 33.4263 13.3875C31.0791 13.3875 29.1763 15.2903 29.1763 17.6375C29.1763 19.9847 31.0791 21.8875 33.4263 21.8875Z" fill="black"/>
<path d="M10.625 34C6.375 36.125 6.375 44.625 6.375 44.625C10.3085 44.5128 14.0742 43.0065 17 40.375L10.625 34Z" fill="black"/>
</svg>
