<svg width="51" height="51" viewBox="0 0 51 51" fill="none" xmlns="http://www.w3.org/2000/svg">
<path d="M6.375 3.1875H3.1875V44.625C3.1875 45.4704 3.52332 46.2811 4.1211 46.8789C4.71887 47.4767 5.52962 47.8125 6.375 47.8125H47.8125V44.625H6.375V3.1875Z" fill="black"/>
<path d="M47.8125 14.3438H36.6562V17.5312H42.3778L30.2812 29.6278L23.4441 22.7747C23.2959 22.6253 23.1196 22.5067 22.9254 22.4258C22.7312 22.3449 22.5229 22.3033 22.3125 22.3033C22.1021 22.3033 21.8938 22.3449 21.6996 22.4258C21.5054 22.5067 21.3291 22.6253 21.1809 22.7747L9.5625 34.4091L11.8097 36.6562L22.3125 26.1534L29.1497 33.0066C29.2978 33.1559 29.4741 33.2745 29.6683 33.3554C29.8625 33.4363 30.0709 33.478 30.2812 33.478C30.4916 33.478 30.7 33.4363 30.8942 33.3554C31.0884 33.2745 31.2647 33.1559 31.4128 33.0066L44.625 19.7784V25.5H47.8125V14.3438Z" fill="black"/>
</svg>
